<svg xmlns="http://www.w3.org/2000/svg" id="Coding-3--Streamline-Milano.svg" viewBox="9.98 28.9 380.02 342.08"><desc>Coding 3 Streamline Illustration: https://streamlinehq.com</desc><g fill="#000000"><path d="M339.5 191.1c0.34 0 1.04 -116.2 0.82 -116.2 -10.5 0.42 -141.78 12 -147.08 13 0 0 0.64 90 0.92 90 18.92 2.1 134.2 12.24 145.34 13.2zm0.24 -115.58c-1.08 30.66 -1.08 107.22 -0.82 114.78C302 186 205.78 178 194.78 177.4c-0.5 -14.82 -1.14 -89.24 -1.14 -89.26 4.96 -0.04 134.36 -11.18 146.1 -12.62zm-62 171.68v0.36c5.06 2.56 24.66 11.76 28.96 14.48a0.24 0.24 0 0 0 0.3 0c9.62 -10.1 19.72 -20 28.94 -30.4 0 0 0 -0.44 -0.12 -0.48 -4.68 -0.94 -8.88 -3.56 -13.48 -4.8q3.5 -3.42 6.9 -6.96c0.12 0 0 -0.6 -0.22 -0.64 -4.76 -1.34 -23.56 -7.68 -28.32 -8.88 -0.1 0 -25.88 19.5 -30.3 24 -0.1 0 0 0.42 0 0.46a160.92 160.92 0 0 0 14.76 6.64 73.06 73.06 0 0 0 -7.42 6.22zm-7 -13.12c5.26 -3.18 25.06 -19.58 30.18 -23.62 0 0 22.88 7.48 27.68 8.84 -4.6 4.6 -26.14 24 -29.12 26.78 -4.9 -1.94 -28.76 -12.08 -28.74 -12.08zm15.04 7c4.6 2 9.2 3.78 13.86 5.54 0.14 0 20.12 -17.7 22.6 -20.12a106.94 106.94 0 0 0 13.26 5.06c-9.9 9.56 -19.16 20 -28.62 30 -2.4 -1.56 -23.68 -12.84 -28.96 -14.12a96.76 96.76 0 0 0 7.86 -6.36z" stroke-width="1"/><path d="M299.18 223.64c0 0.2 0.4 0.14 0.34 0a61.6 61.6 0 0 0 -2.36 -6.68c2.48 0 4.98 0 7.46 -0.18a0.34 0.34 0 0 0 0 -0.68c-2.62 0 -5.24 0.24 -7.84 0.34 -0.16 0 -0.34 0.16 -0.26 0.34 0.94 2.22 1.7 4.58 2.66 6.86zm2.46 0.8a37.7 37.7 0 0 0 9.34 -6 0.34 0.34 0 0 0 -0.32 -0.42s-7.7 5.24 -9.1 6.14c-0.12 0.14 -0.04 0.3 0.08 0.28zm13.6 1.78a32.68 32.68 0 0 1 -8.26 0.4c-0.46 0 -0.44 0.66 0 0.7a29.32 29.32 0 0 0 8.86 -0.44 0.36 0.36 0 0 0 0.26 -0.44 27.18 27.18 0 0 0 -2.9 -6.62c0 -0.12 -0.32 0 -0.26 0.12 0.7 2.06 1.64 4.06 2.3 6.28zm-20.94 0.12a2.14 2.14 0 0 0 -2.88 -0.66 7.28 7.28 0 0 0 -2.2 2c-0.9 1.02 -0.78 1 -2.3 1.08a2.64 2.64 0 0 1 -0.58 0 0.32 0.32 0 0 0 -0.22 0.54c2.54 2.16 -1.74 3.6 -1.54 5.64 0.12 1.3 1.44 2 2.54 2.4a0.18 0.18 0 0 0 0.14 -0.34c-1.12 -0.72 -3.24 -1.4 -1.04 -4 0.42 -0.5 0.96 -0.84 1.2 -1.48a2.2 2.2 0 0 0 -0.18 -1.88 1.32 1.32 0 0 0 0.96 0c1.1 -0.36 3.64 -5.82 5.58 -3.06 0.22 0.4 0.76 0.08 0.52 -0.24zm7.44 11.26c0.28 0.12 0.48 -0.2 0.44 -0.44a4 4 0 0 1 0.48 -3.46c0.44 -0.6 1.12 -1.34 1.08 -2.14a1.3 1.3 0 0 0 -1.42 -1.36c-0.38 0 -0.38 0.6 0 0.58 2 0 -1 3.72 -1.1 4a3.36 3.36 0 0 0 0.18 2 2.44 2.44 0 0 0 -2.34 0.66 6.74 6.74 0 0 0 -0.64 1.18c-1.02 1.68 -2.52 0.92 -4 0.74 -0.18 0 -0.24 0.26 0 0.32a5.16 5.16 0 0 0 3.74 0.64 1.86 1.86 0 0 0 0.76 -0.76 2.9 2.9 0 0 0 0.22 -0.52 2.38 2.38 0 0 1 2.6 -1.44zm-64.54 102.52c-0.22 0 -0.14 0.34 0 0.36a29.62 29.62 0 0 0 5.12 0.14 0.26 0.26 0 0 0 0 -0.48 16.3 16.3 0 0 0 -5.12 -0.02zm14.9 -0.28a29.24 29.24 0 0 0 -5.46 0.28 0.2 0.2 0 0 0 0 0.38 16.78 16.78 0 0 0 5.48 0.12 0.4 0.4 0 0 0 -0.02 -0.78zm10.1 -0.3a14.52 14.52 0 0 0 -5.1 0.28 0.14 0.14 0 0 0 0 0.26 14.94 14.94 0 0 0 5.16 0.26c0.68 -0.04 0.36 -0.92 -0.06 -0.8zm10.4 -0.22a23.66 23.66 0 0 0 -5.68 0.34 0.16 0.16 0 0 0 0 0.32 17.22 17.22 0 0 0 5.74 0 0.32 0.32 0 0 0 -0.06 -0.66zm93.06 -0.98c-0.96 0.14 -4 0.24 -4.56 0.44 0.68 -8.46 0 -21 -7.48 -24.94 -3.24 -1.7 -5.16 -2 -10.94 -2a433.46 433.46 0 0 0 -52.72 2c-6.6 0.74 -9.68 2.92 -10.76 10.54a92 92 0 0 0 -0.72 15.06 8.54 8.54 0 0 0 -2.38 0.26 0.2 0.2 0 0 0 0 0.38 5.04 5.04 0 0 0 2.44 0c0.12 3.82 0.38 7.6 0.7 11.34a10.6 10.6 0 0 0 3.56 8.2 15.66 15.66 0 0 0 8.96 2.72c9.08 0.5 18.36 0 27.44 -0.3s18.28 -0.32 27.26 -1.5c3.24 -0.42 7.64 -0.9 10.32 -3.02s2.62 -6.4 3.14 -9.38 0.92 -5.78 1.18 -8.76a20 20 0 0 0 4.72 0 0.46 0.46 0 1 0 -0.16 -1.04zm-6.14 7.66c-0.52 3.24 -0.78 9.4 -3.78 11.24 -3.36 2 -8.32 2.42 -12.14 2.78 -10.72 0.98 -35.46 1.46 -46.22 1.5a34.32 34.32 0 0 1 -10.8 -0.9c-4.88 -1.6 -6.32 -5.32 -6.66 -10.14a152 152 0 0 1 -0.36 -22.58c0.28 -3.44 0.52 -7.58 2.88 -10.34s6.26 -2.96 9.7 -3.32a394.98 394.98 0 0 1 50.56 -1.74c4.46 0 7.48 0.14 10.6 1.82a13.28 13.28 0 0 1 6 8.96 58.3 58.3 0 0 1 0.22 22.72zm12.66 -10.22c0.62 3.08 -0.38 2.5 -3 3.02 -0.16 0 -0.1 0.28 0 0.28 1.02 0.1 2.64 0.5 3.48 -0.3s0.5 -2.26 0.3 -3.22c-0.08 -0.54 -0.96 -0.32 -0.78 0.22zm1.12 -9.06a0.24 0.24 0 0 0 -0.48 0 13.36 13.36 0 0 0 -0.32 4.72c0 0.56 0.92 0.58 0.9 0 -0.06 -1.6 0.06 -3.18 -0.1 -4.72zm-0.04 -11.14a32.38 32.38 0 0 0 -0.22 6.68c0 0.54 0.92 0.7 0.94 0a35.66 35.66 0 0 0 -0.22 -6.7 0.26 0.26 0 0 0 -0.5 0.02zm0.1 -11.58a30 30 0 0 0 0.3 7.18 0.3 0.3 0 0 0 0.54 0 39.54 39.54 0 0 0 -0.34 -7.12 0.26 0.26 0 0 0 -0.5 -0.06zm0.1 -3.38a0.48 0.48 0 0 0 0.62 -0.16 46.58 46.58 0 0 0 -0.32 -6.54c0 -0.26 -0.44 -0.24 -0.5 0 -0.28 1.38 -0.52 6.34 0.2 6.7zm0.2 -17.02a22.74 22.74 0 0 0 -0.3 5.7 0.38 0.38 0 0 0 0.74 0 21.76 21.76 0 0 0 0 -5.7c-0.1 -0.24 -0.38 -0.22 -0.44 0zm-0.04 -10.22a22.24 22.24 0 0 0 0 4.88 0.5 0.5 0 0 0 0.8 -0.38 24.18 24.18 0 0 0 -0.24 -4.5 0.28 0.28 0 0 0 -0.56 0zm0.5 -5.18a16.58 16.58 0 0 0 -0.16 -5.14c0 -0.3 -0.48 -0.2 -0.5 0a16.3 16.3 0 0 0 0.12 5.06 0.32 0.32 0 0 0 0.54 0.08zm-0.24 -10.84c-0.46 -2 0 -4.14 -0.52 -6.14 0 -0.2 -0.4 -0.22 -0.44 0a21.64 21.64 0 0 0 0 6.54 0.52 0.52 0 0 0 0.96 -0.4zm-1.88 -14.44a6 6 0 0 0 0 4 0.32 0.32 0 0 0 0.5 0c0.62 -0.74 0 -4.38 -0.5 -4zm-143.58 -193.14a8.54 8.54 0 0 0 3.78 0c0.16 -0.12 0 -0.36 0 -0.46a8.78 8.78 0 0 0 -3.72 0.18c-0.22 -0.02 -0.24 0.24 -0.06 0.28zm7.3 -0.36a28.44 28.44 0 0 0 4 0.22 0.46 0.46 0 0 0 0 -0.92 28.44 28.44 0 0 0 -4 0.22 0.24 0.24 0 0 0 0 0.48zm7.64 0a21.02 21.02 0 0 0 3.58 0.14c0.62 0 0.62 -1 0 -0.96a11.06 11.06 0 0 0 -3.64 0.38 0.24 0.24 0 0 0 0.06 0.44zm7.98 -0.14a11.66 11.66 0 0 0 4.7 -0.14c0.52 0 0.42 -1 -0.14 -0.96a17.14 17.14 0 0 0 -4.62 0.72c-0.16 0.08 -0.1 0.32 0.06 0.38zm8.66 -0.36a15.54 15.54 0 0 0 4.2 0.14c0.42 -0.1 0.44 -0.8 0 -0.86a15.54 15.54 0 0 0 -4.2 0.28 0.22 0.22 0 0 0 0 0.44zm7.38 -0.1a7.52 7.52 0 0 0 4 -0.1 0.34 0.34 0 0 0 0 -0.48 7.22 7.22 0 0 0 -4 0.14 0.28 0.28 0 0 0 0 0.44zm7.2 0.18c0.7 0.24 1.44 0 2.16 0.12s0.72 1.04 0.74 1.74 0.74 0.6 0.82 0.1a2.24 2.24 0 0 0 -0.72 -2.44 6.12 6.12 0 0 0 -3.06 0 0.26 0.26 0 0 0 0.06 0.48zm3.62 5.24a0.14 0.14 0 0 0 -0.22 0 15.7 15.7 0 0 0 0 2.18c0 0.6 0.96 0.6 0.92 0s-0.08 -1.72 -0.7 -2.18zm0.6 5.76a5.5 5.5 0 0 0 0 2.96 0.32 0.32 0 0 0 0.56 0 5.76 5.76 0 0 0 -0.2 -2.96 0.24 0.24 0 0 0 -0.36 0zm0.42 5.64c-0.42 0.24 -0.42 2.74 -0.2 3.36 0 0.24 0.48 0.36 0.6 0 0.38 -0.66 0 -3.58 -0.4 -3.36zM99.4 71.86a38.9 38.9 0 0 0 4.92 0 117.02 117.02 0 0 0 1.04 12.5 16 16 0 0 0 1.88 7.3c2.8 4 9.32 3.18 13.44 3.24 13.82 0.22 27.62 -0.66 41.4 -1.6 5.2 -0.36 12.58 0.4 15.3 -5.16 2.36 -4.78 1.64 -11.34 1.22 -16.5 11.58 -0.14 23.22 -0.3 34.78 -0.96a14.3 14.3 0 0 0 6.2 -1.2c3.02 -1.66 3.18 -5.2 3.5 -13.88 0 -1.82 0.16 -3.66 0.22 -5.52a5.34 5.34 0 0 0 2.76 -0.46 0.46 0.46 0 0 0 -0.32 -0.48s-1.74 0 -2.4 0.14a84.68 84.68 0 0 0 -0.38 -13.36c-0.56 -4.54 -2.24 -6.9 -7.66 -6.9 -13.26 0 -48.5 -0.26 -52.84 0 -8.98 0.56 -9.28 9.62 -9.24 16.74 -6.94 0 -14 0.5 -20.84 0.8 -6.36 0.28 -13 0 -19.3 0.96 -4.88 0.72 -7.34 3.86 -8 8.58a80.48 80.48 0 0 0 -0.68 15.22 34.94 34.94 0 0 0 -4.9 0 0.18 0.18 0 0 0 -0.1 0.54zM154 41.04a15.02 15.02 0 0 1 1.54 -7.36 8.74 8.74 0 0 1 7.78 -3.9c4.3 0 38.9 0.28 52 0a6 6 0 0 1 6.6 4.28 27.4 27.4 0 0 1 0.52 7.12c0 5.48 0 10.96 -0.22 16.44 -0.36 6.58 0.28 11.18 -6.16 12.1 -5.7 0.82 -53.76 1.38 -54.84 1.3a5.8 5.8 0 0 1 -6 -5.6A139.64 139.64 0 0 1 154 41.04zm-48.56 19.42c0.52 -7.58 1.56 -11.52 9.24 -12.16 12.8 -1.1 25.74 -0.76 38.54 -2a127.66 127.66 0 0 0 1.26 19.44 6.24 6.24 0 0 0 3.8 5.54c0 0.28 0 7.54 0.14 7.64a25.22 25.22 0 0 0 7.32 -0.28 0.44 0.44 0 0 0 -0.24 -0.84 52.16 52.16 0 0 1 -6.36 0.56 62.44 62.44 0 0 0 -0.52 -6.94c3.46 1.16 11.34 0.44 19.14 0.34a42.92 42.92 0 0 1 -0.44 14.24c-1.84 6.78 -9.06 6.14 -14.74 6.52 -11.66 0.8 -40.58 1.6 -43.36 1.54 -7.16 -0.12 -11.42 0.2 -12.6 -6.84a117.48 117.48 0 0 1 -1.18 -26.76zM90.16 72a22 22 0 0 0 4.58 0c0.38 0 0.38 -0.64 0 -0.6a21.8 21.8 0 0 0 -4.58 0.36c-0.16 -0.02 -0.16 0.24 0 0.24zm-10.74 0a12.26 12.26 0 0 0 4.9 0.32c0.4 0 0.4 -0.62 0 -0.6 -0.8 0 -4 -0.14 -4.86 0a0.16 0.16 0 0 0 -0.04 0.28zm-6.94 4.1a12.64 12.64 0 0 0 -0.84 -3.68 36 36 0 0 0 4.18 -0.42 0.24 0.24 0 0 0 0 -0.46 16.98 16.98 0 0 0 -4.48 0.38 13.86 13.86 0 0 0 0.66 4.24c0.14 0.14 0.46 0.16 0.48 -0.06zm0.7 9a15.04 15.04 0 0 0 -0.66 -4.4 0.16 0.16 0 0 0 -0.32 0c0 1.44 0.2 2.9 0.22 4.34a0.38 0.38 0 0 0 0.76 0.06zm0.42 8.58a27.32 27.32 0 0 0 -0.6 -4.42c0 -0.2 -0.32 -0.14 -0.34 0a26.68 26.68 0 0 0 0.2 4.38c0.04 0.5 0.78 0.52 0.74 0.04zm0.06 8.78a25.38 25.38 0 0 1 -0.38 -4c0 -0.26 -0.34 -0.24 -0.38 0a16.24 16.24 0 0 0 0 4.18 0.42 0.42 0 1 0 0.76 -0.18zm0.08 9.26a14.32 14.32 0 0 0 -0.6 -4.48c0 -0.16 -0.28 -0.12 -0.28 0a14.3 14.3 0 0 0 0.26 4.44c0.1 0.32 0.56 0.32 0.62 0.04zm0.08 9.04c-0.2 -1.36 -0.22 -2.76 -0.42 -4.12 0 -0.16 -0.26 -0.14 -0.3 0a11.62 11.62 0 0 0 0 4.24 0.4 0.4 0 1 0 0.72 -0.12zm-0.06 10.12a11.18 11.18 0 0 0 -0.3 -4.68 0.16 0.16 0 0 0 -0.3 0 28.64 28.64 0 0 0 -0.14 4.54c0.02 0.44 0.68 0.58 0.74 0.14zm0.36 8.64a25.86 25.86 0 0 0 -0.54 -4.1 0.18 0.18 0 0 0 -0.36 0 11 11 0 0 0 0.12 4.2c0.1 0.38 0.82 0.38 0.78 -0.1zM74 144.64a0.24 0.24 0 0 0 -0.46 0 23.62 23.62 0 0 0 -0.16 4 0.4 0.4 0 0 0 0.78 0 23.62 23.62 0 0 0 -0.16 -4zM73.46 154a18 18 0 0 0 0 4.52 0.36 0.36 0 0 0 0.68 0A18 18 0 0 0 74 154a0.24 0.24 0 0 0 -0.54 0zm0.54 12.98a22.44 22.44 0 0 0 -0.22 -4 0.2 0.2 0 0 0 -0.38 0 8.58 8.58 0 0 0 0.14 4.12 0.26 0.26 0 0 0 0.46 -0.12zm0.36 7.62a21.46 21.46 0 0 0 -0.22 -3.76c0 -0.22 -0.42 -0.22 -0.46 0a23.58 23.58 0 0 0 -0.2 3.76 0.44 0.44 0 0 0 0.88 0zm0.1 7.4a7.82 7.82 0 0 0 -0.16 -3.44c0 -0.3 -0.46 -0.2 -0.5 0a7.88 7.88 0 0 0 0.3 3.44 0.26 0.26 0 0 0 0.36 0zm0.02 7.54c0.46 -0.38 0.34 -3.06 0.16 -3.76 0 -0.28 -0.44 -0.18 -0.48 0 -0.16 1.08 -0.46 4.38 0.32 3.76z" stroke-width="1"/><path d="M126.72 71.5c-2 3.28 -4 6.64 -5.76 10 -0.2 0.38 0.32 0.82 0.62 0.48s5.82 -9.24 6 -9.5A42.26 42.26 0 0 0 134 79.12c0.3 0.24 0.74 -0.22 0.52 -0.52a65.44 65.44 0 0 0 -6.34 -7.04c1.48 -2.34 3 -4.68 4.3 -7.12a0.42 0.42 0 0 0 -0.72 -0.42 148.1 148.1 0 0 0 -4.44 6.66c-0.24 -0.26 -6.46 -6.5 -7.3 -6.26a0.14 0.14 0 0 0 0 0.16s5.56 5.66 6.7 6.92zm11.52 7.5c0 0.44 0.72 0.32 0.74 0 0.12 -2.72 -0.4 -12.58 -0.48 -14.76a34.38 34.38 0 0 0 6 7.24 48 48 0 0 0 5.26 -6.22c0 2.1 0.28 11.14 0.68 13.5 0 0.44 0.68 0.28 0.72 0 0.24 -2.64 -0.56 -14.96 -0.5 -15.16a0.32 0.32 0 0 0 -0.54 -0.32c-1.06 1.08 -4.64 6 -5.64 7.16 -0.9 -1.14 -6 -7.64 -6 -7.8s-0.66 0 -0.6 0.16 -0.62 11.2 0.36 16.2zm29.46 -20.26a34.2 34.2 0 0 0 -0.24 -5.88 7.88 7.88 0 0 0 6.92 -8.58 6.32 6.32 0 0 0 -8.38 -5.2s-0.16 0.16 -0.16 0.2a173.24 173.24 0 0 0 1.12 19.56 0.36 0.36 0 0 0 0.74 -0.1zm5.72 -13.64a6.86 6.86 0 0 1 -6 6.8s-0.52 -8.66 -1.08 -12.4c3.44 -0.18 7.3 1.72 7.08 5.6zm26.16 13.44a38.78 38.78 0 0 0 -0.24 -5.88 8 8 0 0 0 6.92 -8.6 6.36 6.36 0 0 0 -8.38 -5.2 1.74 1.74 0 0 0 -0.16 0.2 178.46 178.46 0 0 0 1.12 19.58c0.1 0.42 0.7 0.3 0.74 -0.1zm5.7 -13.64a6.86 6.86 0 0 1 -6 6.8s-0.52 -8.68 -1.08 -12.42c3.44 -0.18 7.3 1.72 7.08 5.62zm-22.98 13.32a70.96 70.96 0 0 0 -0.3 -8.48 63.7 63.7 0 0 0 7.8 0.6 62.58 62.58 0 0 0 0.2 8.66c0 0.38 0.58 0.24 0.62 -0.1a132.12 132.12 0 0 0 -0.48 -18.52c0 -0.24 -0.38 -0.14 -0.42 0a61.14 61.14 0 0 0 0 8.98 36.34 36.34 0 0 0 -7.8 -0.18s0 -6.12 -0.28 -9.14a0.18 0.18 0 0 0 -0.36 0 105.64 105.64 0 0 0 0.44 18.22c0.06 0.4 0.56 0.3 0.58 -0.04zm-134.84 173.66c-0.2 3.68 1.36 15.36 0.3 17.06a2.96 2.96 0 0 1 -4.82 0.5 8 8 0 0 1 -1.56 -4.22c0 -0.66 -1.14 -0.68 -1.08 0a6.96 6.96 0 0 0 3.1 6 3.86 3.86 0 0 0 4.84 -1.04c1.76 -2.12 0.58 -14.86 -0.3 -18.32a0.24 0.24 0 0 0 -0.48 0.02zm-0.64 -2.2a1.16 1.16 0 0 0 1.68 -1.42 1.22 1.22 0 0 0 -2.12 -0.4 1.3 1.3 0 0 0 0.44 1.82zm8.72 12.42c-0.12 -0.56 1 -2 1.76 -1.44a0.26 0.26 0 0 0 0.44 -0.26s-0.18 -0.52 -0.3 -0.54c-1.42 -0.46 -3.84 0.66 -3.04 2.4 0.42 0.92 2.82 2.74 2.98 3 0.94 1.5 0 1.88 -0.9 2.14a3.46 3.46 0 0 1 -3.32 -0.68c-0.26 -0.2 -0.82 0 -0.66 0.4 0.9 2.28 4.8 2.14 6.2 0.34a2 2 0 0 0 -0.18 -2.68c-0.52 -0.64 -2.94 -2.46 -2.98 -2.68zm240.02 86.5a65.4 65.4 0 0 0 0.18 9.06c-2 0 -4.16 -0.2 -6.2 -0.14a69.46 69.46 0 0 0 -0.56 -8.22c0 -0.32 -0.48 -0.2 -0.5 0a90.74 90.74 0 0 0 0.14 16.48c0 0.7 1.12 0.52 1 0v-7.48a29.48 29.48 0 0 0 6.22 0.4 65.16 65.16 0 0 0 0.34 7.14c0 0.44 0.68 0.28 0.72 0a101.14 101.14 0 0 0 -0.96 -17.18 0.16 0.16 0 0 0 -0.38 -0.06zm17.06 -0.3c-2 0.36 -9.02 -0.32 -10.56 0.16 -0.16 0 -0.2 0.32 0 0.36 1.82 0.28 3.66 0.54 5.48 0.66 -0.36 4.98 -0.24 10 -0.44 15 0 0.62 0.92 0.62 0.96 0a78 78 0 0 0 0.14 -14.96 21.62 21.62 0 0 0 4.54 -0.24c0.7 0.08 0.66 -1.12 -0.12 -0.98zm22.42 -0.44c-1.32 1.5 -6 7.32 -6.96 8.74 -0.9 -1.42 -5.62 -7.24 -6.96 -8.74 -0.14 -0.16 -0.5 0.18 -0.5 0.26 -0.2 2.64 0 13.36 0.24 16 0 0.36 0.62 0.52 0.7 0a90.94 90.94 0 0 0 -0.24 -14.82 50.58 50.58 0 0 0 6.5 8 0.84 0.84 0 0 0 0.54 0 50.58 50.58 0 0 0 6.5 -8 90.9 90.9 0 0 0 -0.24 14.82c0 0.42 0.66 0.26 0.7 0 0.3 -2.62 0.44 -13.34 0.24 -16 0 -0.12 -0.36 -0.42 -0.52 -0.26zm13.84 15.3a26 26 0 0 0 -6.84 0 110.26 110.26 0 0 0 0.18 -15.48 0.32 0.32 0 0 0 -0.62 0 152.5 152.5 0 0 0 -0.26 15.7s0.1 0.5 0.3 0.52a56.36 56.36 0 0 0 7.14 0c0.4 0.1 0.56 -0.66 0.1 -0.74zM26.4 243.7a0.42 0.42 0 0 0 0 -0.84 12 12 0 0 0 -3.6 0.14 0.28 0.28 0 0 0 0 0.54 12 12 0 0 0 3.6 0.16zm-10.84 0.42a10 10 0 0 0 3.28 0 0.32 0.32 0 0 0 0 -0.56 9 9 0 0 0 -3.28 0 0.36 0.36 0 0 0 0 0.56zm-4.76 2.8c0.16 -0.58 0 -2.44 0.3 -2.62A3.18 3.18 0 0 1 12 244c0.18 0 0.24 -0.28 0 -0.32 -0.6 0 -1.5 -0.32 -1.88 0.36a7.58 7.58 0 0 0 0 2.86 0.36 0.36 0 0 0 0.68 0.02zm-0.08 7.5a7.68 7.68 0 0 0 0 -3.16 0.28 0.28 0 0 0 -0.56 0 8 8 0 0 0 0.12 3.16 0.3 0.3 0 0 0 0.44 0zm0.46 7.58a13.6 13.6 0 0 0 -0.2 -3.68c0 -0.34 -0.56 -0.24 -0.58 0a14 14 0 0 0 0.22 3.6 0.32 0.32 0 0 0 0.56 0.08zm0.3 4.2c0 -0.34 -0.58 -0.24 -0.6 0a11.82 11.82 0 0 0 0.28 3.52 0.34 0.34 0 0 0 0.6 0 12.44 12.44 0 0 0 -0.28 -3.52zm1.18 11.98A21.54 21.54 0 0 0 12.4 274a0.28 0.28 0 0 0 -0.56 0 15.38 15.38 0 0 0 0.32 4.26 0.28 0.28 0 0 0 0.5 -0.08zm0.5 7.82a8.24 8.24 0 0 0 -0.16 -4c0 -0.36 -0.6 -0.24 -0.62 0.1a7.78 7.78 0 0 0 0.3 3.9c0.1 0.36 0.4 0.28 0.48 0zm0.4 6.82a10 10 0 0 0 -0.22 -3.18 0.24 0.24 0 0 0 -0.46 0 10 10 0 0 0 0 3.18 0.36 0.36 0 0 0 0.68 0zm0.26 9.18a8.14 8.14 0 0 0 0 -3.74 0.3 0.3 0 0 0 -0.56 0 8.14 8.14 0 0 0 0 3.74 0.28 0.28 0 0 0 0.56 0zm0.66 8.1A16 16 0 0 0 14 306c0 -0.34 -0.64 -0.26 -0.6 0.1a22.98 22.98 0 0 0 0.4 4.18 0.34 0.34 0 0 0 0.68 -0.18zm0.22 8.94a14.6 14.6 0 0 0 -0.22 -4.14c0 -0.28 -0.5 -0.2 -0.5 0a14.94 14.94 0 0 0 0.28 4 0.26 0.26 0 0 0 0.44 0.14zm0.78 7.52a6.66 6.66 0 0 0 -0.66 -3.82 0.18 0.18 0 0 0 -0.3 0 8.44 8.44 0 0 0 0.36 3.74 0.34 0.34 0 0 0 0.6 0.08zm0.62 8.32a12.76 12.76 0 0 0 -0.5 -3.7 0.32 0.32 0 0 0 -0.62 0 12.2 12.2 0 0 0 0.46 3.7 0.36 0.36 0 0 0 0.66 0zm4.16 3.8a22.12 22.12 0 0 0 -4.6 0 0.32 0.32 0 0 0 0 0.64 12.68 12.68 0 0 0 4.6 -0.1c0.28 -0.02 0.34 -0.48 0 -0.54zm8.4 -0.28a17.48 17.48 0 0 0 -4.44 0.3c-0.34 0 -0.38 0.54 0 0.54a18.28 18.28 0 0 0 4.44 -0.2c0.3 -0.1 0.34 -0.58 0 -0.64zm8.66 0.06a13.44 13.44 0 0 0 -4.38 0.1 0.28 0.28 0 0 0 0 0.54 13.4 13.4 0 0 0 4.38 0 0.32 0.32 0 0 0 0 -0.64zm9.74 0.08c-1.86 -0.14 -3.76 0.18 -5.64 0.12a0.3 0.3 0 0 0 0 0.58 14.76 14.76 0 0 0 5.7 -0.24 0.24 0.24 0 0 0 -0.06 -0.46zm7.68 0.2a15.84 15.84 0 0 0 -3.66 0 0.3 0.3 0 1 0 0 0.6 17.04 17.04 0 0 0 3.66 0 0.28 0.28 0 0 0 0 -0.6zm9.6 0a17.86 17.86 0 0 0 -5.26 0.18c-0.28 0 -0.18 0.42 0 0.46a17.42 17.42 0 0 0 5.2 0 0.3 0.3 0 0 0 0.06 -0.64zm8.72 -0.06a14 14 0 0 0 -4.84 0.2c-0.26 0 -0.18 0.46 0 0.46a25.42 25.42 0 0 0 4.78 -0.16 0.26 0.26 0 0 0 0.06 -0.5zm9.66 -0.38a29.1 29.1 0 0 0 -5 0.4 0.2 0.2 0 0 0 0 0.4 9.16 9.16 0 0 0 5.08 -0.3 0.26 0.26 0 0 0 -0.08 -0.5zm8.72 -0.3a38.72 38.72 0 0 0 -4.76 0.24c-0.32 0 -0.44 0.54 0 0.6a8.86 8.86 0 0 0 4.9 -0.36 0.26 0.26 0 0 0 -0.14 -0.48zm9.84 0c-1.76 0 -3.52 0.16 -5.28 0.18a0.32 0.32 0 0 0 0 0.62 17.1 17.1 0 0 0 5.34 -0.34 0.24 0.24 0 0 0 -0.06 -0.46zm8.58 0.5a0.32 0.32 0 0 0 0 -0.64 37.88 37.88 0 0 0 -4.52 0c-0.36 0 -0.46 0.58 0 0.64a11.04 11.04 0 0 0 4.52 0zm10.54 -0.5c0.24 -0.12 0.12 -0.48 -0.14 -0.5 -0.84 0 -4.26 0.44 -5.12 0.44 -0.38 0 -0.36 0.54 0 0.58a9.8 9.8 0 0 0 5.26 -0.52zm32.2 -37.88c-9.12 -3.2 -12.32 -14.14 -14.42 -22.6 -4.38 -17.72 -3.1 -35.52 -6.74 -58.52 -1.4 -8.66 -2.56 -18.48 -8 -25.68a22.62 22.62 0 0 0 -21.34 -8.68c-0.16 0 -0.12 0.28 0 0.28a23.1 23.1 0 0 1 22.78 11.88c4.62 8.6 5.56 19.5 6.76 29.02 2.36 18.5 1.28 37.8 6.78 55.8 2.18 7.18 5.74 17.16 14 18.9a0.2 0.2 0 0 0 0.18 -0.4zm110.6 -150.94a6.38 6.38 0 0 0 -0.18 -3c0 -0.16 -0.28 0 -0.32 0a6.42 6.42 0 0 0 0 2.96 0.28 0.28 0 0 0 0.5 0.04z" stroke-width="1"/><path d="M258 142.84c-0.22 0 0.28 33.06 0.52 33.08 9.5 1.22 48 3.42 57.58 2.98 0.44 0 1.52 -31.86 1.1 -38 -0.08 -0.28 -54.72 1.1 -59.2 1.94zm57.5 35.32c-9.32 -0.92 -47.04 -2.5 -56.44 -2.64 0.38 -5.5 0 -29.8 -0.46 -32.3 4.92 0.12 48.2 -1.22 57.84 -1.58 0.08 -0.02 -1.12 30.36 -1.02 36.52zm-114.02 -81.42a56.14 56.14 0 0 0 5.8 -0.42 0.42 0.42 0 0 0 0 -0.82 17.64 17.64 0 0 0 -5.88 0.58c-0.36 0.1 -0.3 0.68 0.08 0.66zm10 -0.94a21.08 21.08 0 0 0 5.02 0c0.46 0 0.62 -0.78 0.12 -0.88a30 30 0 0 0 -5.12 0.36c-0.24 0.08 -0.26 0.48 -0.02 0.52zm9.42 -0.54a214.72 214.72 0 0 0 26.9 -2.14c0.36 0 0.26 -0.6 -0.1 -0.64a183.68 183.68 0 0 0 -26.86 2.4 0.2 0.2 0 0 0 0.06 0.38zm31.78 -2.7a14.34 14.34 0 0 0 4.34 0 0.46 0.46 0 0 0 0 -0.92 14.46 14.46 0 0 0 -4.34 0.56c-0.14 0.06 -0.18 0.32 0 0.36zm8.86 -0.94a217.26 217.26 0 0 0 23.28 -1.62c0.48 0 0.36 -0.82 -0.12 -0.82a218 218 0 0 0 -23.22 2c-0.3 0 -0.2 0.42 0.06 0.44zm28.98 -2.52c6.72 0.44 33.7 -1.86 40.14 -2.9 0.46 0 0.34 -0.8 -0.1 -0.8 -6.82 0.2 -33.76 2 -40.1 3.22 -0.28 0.06 -0.2 0.46 0.06 0.48zm-63.22 12.18c0.52 0 0.56 -0.84 0 -0.84 -4.38 0.14 -23.52 1.6 -25.34 2.32 -2.14 0.86 19.48 -0.76 25.34 -1.48zm6.84 -0.7a0.34 0.34 0 0 0 0 -0.6 9 9 0 0 0 -3.7 0.36c-0.2 0 -0.14 0.4 0 0.46a9.18 9.18 0 0 0 3.7 -0.22zm33.06 -3.5c-9.84 0.72 -19.88 1.06 -29.64 2.58 -0.3 0 -0.22 0.5 0 0.5 9.84 -0.18 19.76 -1.44 29.58 -2.26 0.6 -0.04 0.6 -0.86 0.06 -0.82zm37.66 -3.36c-5.54 0 -27.58 2.28 -32.8 3.16 -0.32 0 -0.22 0.5 0 0.5a219.56 219.56 0 0 0 32.84 -3c0.44 -0.08 0.34 -0.66 -0.04 -0.66zm25.14 -0.9c0.4 0 0.28 -0.68 0 -0.68a187.76 187.76 0 0 0 -19.22 1.2c-0.32 0 -0.2 0.5 0 0.54a132.52 132.52 0 0 0 19.22 -1.06zm-127.5 16.86c-0.18 0.54 3.38 0.24 4.24 0a0.34 0.34 0 0 0 0 -0.62c-0.74 -0.4 -4 -0.02 -4.24 0.62zm10.34 -0.54a0.3 0.3 0 0 0 0 -0.48 5.3 5.3 0 0 0 -2.74 0 0.32 0.32 0 0 0 0 0.6 8 8 0 0 0 2.74 -0.12zm3 -0.16c4.84 0 24.34 -1.46 29.2 -2 0.52 0 0.54 -0.84 0 -0.82 -5.04 0.12 -24.64 1.4 -29.26 2.28 -0.26 0.14 -0.2 0.54 0.06 0.54zm34.74 -2.88c6.38 0.14 32.22 -0.98 38.54 -1.72a0.36 0.36 0 0 0 0 -0.72 294.24 294.24 0 0 0 -38.6 2c-0.28 0.02 -0.2 0.44 0.06 0.44zm43.96 -2.86a143.7 143.7 0 0 0 22.64 -0.76c0.42 0 0.32 -0.72 -0.1 -0.72 -3.74 0 -18.8 0.72 -22.54 1.1a0.2 0.2 0 0 0 0 0.38zm35.6 -2.98a18.82 18.82 0 0 0 -8.98 0.92c-0.24 0 -0.24 0.52 0 0.5 1.58 0 7.54 -0.52 8.9 -0.8a0.32 0.32 0 0 0 0.08 -0.62zm-124.5 18.5c0.62 0 0.62 -1.02 0 -0.98a14.76 14.76 0 0 0 -3.12 0.34c-0.28 0 -0.34 0.58 0 0.64a16.26 16.26 0 0 0 3.12 0zm2.98 -0.48c3.62 0.82 19.7 -0.68 23.56 -1.34 0.46 0 0.34 -0.78 0 -0.78 -4 0 -20.1 0.6 -23.46 1.78 -0.24 0.06 -0.26 0.3 -0.1 0.34zm35.82 -1.58c0.56 0 0.26 -1 -0.22 -0.86a44.18 44.18 0 0 0 -7.8 0.48 0.24 0.24 0 0 0 0 0.46 24 24 0 0 0 8.02 -0.08zm26.88 -1.48c0.36 0 0.26 -0.58 0 -0.6 -3.5 -0.22 -17.86 0.48 -21.4 0.82a0.28 0.28 0 0 0 0 0.56 143.6 143.6 0 0 0 21.4 -0.78zm7.68 -0.5a0.4 0.4 0 0 0 0 -0.66c-0.64 -0.28 -3.9 0.2 -3.18 0.66a6.12 6.12 0 0 0 3.18 0zm30.02 -2.58a225.56 225.56 0 0 0 -26.38 1.88c-0.28 0 -0.18 0.44 0 0.48 4.46 0.54 22.48 -0.56 26.4 -1.76a0.3 0.3 0 0 0 -0.02 -0.6zm6.98 0.5c0.64 0 0.64 -1.04 0 -1.02a10.14 10.14 0 0 0 -2.34 0.3 0.22 0.22 0 0 0 0 0.44 9.14 9.14 0 0 0 2.34 0.28zm10 -0.2c0.64 -0.12 0.38 -1.14 -0.28 -0.98 -1.12 0.26 -2.3 0.34 -3.44 0.5 -0.3 0 -0.3 0.56 0 0.6a10.58 10.58 0 0 0 3.72 -0.12zm-113.7 14.02c0.38 0 0.38 -0.7 0 -0.76a23.66 23.66 0 0 0 -9.38 0.82 0.28 0.28 0 0 0 0 0.52c0.88 0.64 7.64 -0.32 9.38 -0.58zm5.3 -0.06c4.78 0.18 9.68 -0.56 14.48 -0.66 0.62 0 0.64 -1 0 -0.98a64.32 64.32 0 0 0 -14.54 1.16 0.24 0.24 0 0 0 0.06 0.48zm17.88 -0.92c3.08 0.22 6.22 -0.1 9.32 0 0.64 0 0.64 -0.98 0 -1a38.92 38.92 0 0 0 -9.4 0.42c-0.34 0.08 -0.24 0.56 0.08 0.58zM286 123.04c-11.46 0.58 -22.92 1.48 -34.38 1.58 -0.22 0 -0.28 0.34 0 0.38 5.16 1 28.38 -0.72 34.38 -1 0.52 -0.12 0.54 -1 0 -0.96zm21.72 -1.04a138.8 138.8 0 0 0 -15.1 1.18c-0.12 0 -0.14 0.24 0 0.26a139.52 139.52 0 0 0 15.1 -0.58 0.44 0.44 0 0 0 0 -0.86zm4.46 0.66c4.86 0 9.74 -0.42 14.6 -0.48a0.46 0.46 0 0 0 0 -0.92 71.68 71.68 0 0 0 -14.64 1.06 0.18 0.18 0 0 0 0.04 0.34zm-85.26 13.48a0.38 0.38 0 0 0 0 -0.76c-4 -0.24 -19.88 -0.38 -23.8 0a0.24 0.24 0 0 0 0 0.46c3.92 0.4 19.86 0.5 23.8 0.3zM258.14 134c-4 -0.18 -20.62 0.42 -24.66 0.94a0.24 0.24 0 0 0 0 0.46 172.34 172.34 0 0 0 24.76 -0.66c0.44 -0.08 0.32 -0.74 -0.1 -0.74zm6.02 0.24c-0.14 0 -0.14 0.26 0 0.28 2.88 0.76 15.26 0.32 18.26 -0.18 0.44 0 0.32 -0.72 -0.1 -0.72 -3.16 -0.04 -15.36 0.12 -18.16 0.62zm25.18 -0.24v0.16a50.94 50.94 0 0 0 14 0.76c0.42 0 0.28 -0.66 0 -0.7a98.26 98.26 0 0 0 -14 -0.22zm40.38 -1.1c-3.26 -0.8 -18.1 0.16 -21.78 0.74 -0.36 0 -0.24 0.58 0 0.6 7.18 0.52 14.42 -1.02 21.58 -0.54a0.42 0.42 0 0 0 0.2 -0.8zm-120.18 11.36a14.88 14.88 0 0 0 -5.72 0 0.22 0.22 0 0 0 0 0.42 35.2 35.2 0 0 0 5.6 0.56 0.44 0.44 0 0 0 0.12 -0.98zm17.46 0.74c0.28 0 0.3 -0.54 0 -0.58a74.72 74.72 0 0 0 -12.86 0.26 0.2 0.2 0 0 0 0 0.4 74.62 74.62 0 0 0 12.86 -0.08zm15.64 0.4a0.46 0.46 0 0 0 0 -0.92c-2 0 -11.58 0 -11.56 0.24 0.1 1.58 10.1 0.72 11.56 0.68zm10.58 -0.54a19.54 19.54 0 0 0 -6.2 0c-0.12 0 -0.2 0.26 0 0.34a19.52 19.52 0 0 0 6.24 0.42c0.34 -0.1 0.3 -0.64 -0.04 -0.76zm-0.36 11.58c-4.22 -0.6 -22.5 -1.04 -27.18 -0.78 -0.22 0 -0.28 0.34 0 0.4a170.14 170.14 0 0 0 27.14 1.1c0.32 -0.04 0.48 -0.66 0.04 -0.72zm-32.54 -1.02a20 20 0 0 0 -5.68 -0.12 0.28 0.28 0 0 0 0 0.52 48.42 48.42 0 0 0 5.82 0.54c0.56 -0.12 0.36 -0.88 -0.14 -0.94zm-15.88 -0.42a0.24 0.24 0 0 0 0 0.44 7.46 7.46 0 0 0 3.32 0 0.34 0.34 0 0 0 0 -0.44 6.2 6.2 0 0 0 -3.32 0z" stroke-width="1"/><path d="M272 146.7a6.68 6.68 0 0 0 0 2.96 0.28 0.28 0 0 0 0.46 0 6.68 6.68 0 0 0 -0.18 -3 0.2 0.2 0 0 0 -0.28 0.04zm4.12 2.96a6.98 6.98 0 0 0 -0.18 -3 0.18 0.18 0 0 0 -0.32 0 6.4 6.4 0 0 0 0 2.96 0.28 0.28 0 0 0 0.5 0.04zm24.06 -0.38a6.68 6.68 0 0 0 -0.18 -3c0 -0.14 -0.28 0 -0.32 0a6.4 6.4 0 0 0 0 2.96 0.28 0.28 0 0 0 0.5 0.04zm11.52 -0.26a6.96 6.96 0 0 0 -0.18 -3c0 -0.16 -0.3 0 -0.34 0a6.7 6.7 0 0 0 0 2.96 0.28 0.28 0 0 0 0.52 0.04zm0.04 7.28a6.38 6.38 0 0 0 -0.18 -3c0 -0.16 -0.28 0 -0.32 0a6.7 6.7 0 0 0 0 2.96 0.3 0.3 0 0 0 0.5 0.04zm0.38 6.06a6.66 6.66 0 0 0 -0.18 -3 0.18 0.18 0 0 0 -0.32 0 6.42 6.42 0 0 0 0 2.96 0.28 0.28 0 0 0 0.5 0.04zm-0.46 7.16a6.7 6.7 0 0 0 0 2.96 0.28 0.28 0 0 0 0.46 0 6.66 6.66 0 0 0 -0.2 -3c0.08 -0.16 -0.22 -0.08 -0.26 0.04zm-10.64 -6.9a6.38 6.38 0 0 0 -0.18 -3c0 -0.16 -0.28 0 -0.32 0a6.42 6.42 0 0 0 0 2.96 0.28 0.28 0 0 0 0.5 0.04zm-6.64 -6.92a6.66 6.66 0 0 0 -0.2 -3c0 -0.16 -0.28 0 -0.32 0a6.7 6.7 0 0 0 0 2.96 0.28 0.28 0 0 0 0.52 0.04zm0.44 6.9a6.32 6.32 0 0 0 -0.18 -2.98c0 -0.16 -0.28 0 -0.32 0a6.32 6.32 0 0 0 0 2.94 0.24 0.24 0 0 0 0.5 0.04zm-4.12 0.14a6.96 6.96 0 0 0 -0.18 -3c0 -0.16 -0.3 0 -0.34 0a6.7 6.7 0 0 0 0 2.96 0.28 0.28 0 0 0 0.52 0.04zm-8.6 -9.6a6.7 6.7 0 0 0 0 2.96 0.28 0.28 0 0 0 0.46 0 6.42 6.42 0 0 0 -0.18 -3c-0.02 -0.14 -0.24 -0.08 -0.28 0.04zm-1.56 10.5a6.66 6.66 0 0 0 -0.18 -3c0 -0.16 -0.28 0 -0.32 0a6.42 6.42 0 0 0 0 2.96 0.28 0.28 0 0 0 0.5 0.04zM272 153.34a6.32 6.32 0 0 0 0 2.94 0.28 0.28 0 0 0 0.46 0 6.32 6.32 0 0 0 -0.18 -2.98c-0.06 -0.16 -0.28 -0.1 -0.28 0.04zm-3.62 0.28a6.7 6.7 0 0 0 0 2.96 0.28 0.28 0 0 0 0.46 0 6.66 6.66 0 0 0 -0.18 -3c-0.02 -0.16 -0.24 -0.08 -0.28 0.04zm-4.16 10.5a6.98 6.98 0 0 0 -0.18 -3 0.2 0.2 0 0 0 -0.34 0 6.68 6.68 0 0 0 0 2.96 0.28 0.28 0 0 0 0.52 0.04zm-0.22 4.86a6.42 6.42 0 0 0 0 3.02 0.28 0.28 0 0 0 0.46 0 6.66 6.66 0 0 0 -0.18 -3c-0.04 -0.22 -0.28 -0.14 -0.28 -0.02zm10.56 -0.38a6.7 6.7 0 0 0 0 2.96 0.28 0.28 0 0 0 0.46 0 6.38 6.38 0 0 0 -0.18 -3c-0.02 -0.16 -0.24 -0.08 -0.28 0.04zm10.42 0.8a6.7 6.7 0 0 0 0 2.96 0.28 0.28 0 0 0 0.46 0 6.68 6.68 0 0 0 -0.2 -3c0 -0.14 -0.22 -0.08 -0.26 0.04zm15.64 -0.22a6.7 6.7 0 0 0 0 2.96 0.28 0.28 0 0 0 0.46 0 6.66 6.66 0 0 0 -0.2 -3c0 -0.16 -0.22 -0.1 -0.26 0.04zm5.84 0.22a6.7 6.7 0 0 0 0 2.96 0.28 0.28 0 0 0 0.46 0 6.68 6.68 0 0 0 -0.18 -3 0.2 0.2 0 0 0 -0.28 0.04zm-37.72 -20.54a1.54 1.54 0 0 0 0.3 -2.46 2.28 2.28 0 0 0 -2.94 0.24 1.32 1.32 0 0 0 -0.26 1.54 2.12 2.12 0 0 0 2.9 0.68zm-0.74 -2.34a0.9 0.9 0 0 1 0.54 1.5 1.48 1.48 0 0 1 -1.8 0.12c-0.64 -0.4 -0.28 -1.78 1.26 -1.62zm20.1 2.6a1.52 1.52 0 0 0 0.3 -2.46 2.36 2.36 0 0 0 -2.94 0.26 1.28 1.28 0 0 0 -0.26 1.54 2.14 2.14 0 0 0 2.9 0.66zm-0.74 -2.34a0.9 0.9 0 0 1 0.54 1.52 1.5 1.5 0 0 1 -1.8 0.12c-0.64 -0.42 -0.3 -1.84 1.26 -1.64zm-4.8 0.26a2.28 2.28 0 0 0 -2.94 0.26 1.36 1.36 0 0 0 -0.26 1.54 2.16 2.16 0 0 0 2.92 0.66 1.52 1.52 0 0 0 0.28 -2.46zm-0.5 1.64a1.48 1.48 0 0 1 -1.78 0.12c-0.64 -0.4 -0.3 -1.86 1.24 -1.64a0.9 0.9 0 0 1 0.48 1.52zm13.16 0.44a1.52 1.52 0 0 0 0.3 -2.46 2.32 2.32 0 0 0 -2.94 0.26 1.22 1.22 0 0 0 -0.26 1.54 2.12 2.12 0 0 0 2.9 0.66zm-0.74 -2.34a0.92 0.92 0 0 1 0.54 1.52 1.5 1.5 0 0 1 -1.8 0.12c-0.64 -0.42 -0.22 -1.86 1.26 -1.64zm12.64 2.24a1.52 1.52 0 0 0 0.3 -2.46 2.34 2.34 0 0 0 -2.94 0.24 1.28 1.28 0 0 0 -0.26 1.54 2.12 2.12 0 0 0 2.9 0.68zm-0.74 -2.34a0.88 0.88 0 0 1 0.54 1.5 1.48 1.48 0 0 1 -1.8 0.12c-0.64 -0.3 -0.46 -1.82 1.26 -1.62zm1.44 9.32a1.52 1.52 0 0 0 0.3 -2.46 2.28 2.28 0 0 0 -2.94 0.24 1.28 1.28 0 0 0 -0.26 1.54 2.16 2.16 0 0 0 2.9 0.68zm-0.74 -2.34a0.88 0.88 0 0 1 0.54 1.5 1.48 1.48 0 0 1 -1.8 0.12c-0.64 -0.44 -0.2 -1.84 1.26 -1.66zm-4.9 -0.4a2.3 2.3 0 0 0 -2.94 0.24 1.26 1.26 0 0 0 -0.26 1.54 2.12 2.12 0 0 0 2.9 0.66 1.52 1.52 0 0 0 0.3 -2.44zm-0.52 1.62a1.44 1.44 0 0 1 -1.78 0.12c-0.64 -0.4 -0.36 -1.84 1.24 -1.62a0.88 0.88 0 0 1 0.54 1.5zm-13.12 -1.38a2.28 2.28 0 0 0 -2.94 0.24 1.24 1.24 0 0 0 -0.26 1.54 2.14 2.14 0 0 0 2.9 0.66 1.5 1.5 0 0 0 0.3 -2.44zm-0.5 1.62a1.48 1.48 0 0 1 -1.8 0.12c-0.64 -0.4 -0.28 -1.88 1.26 -1.62a0.9 0.9 0 0 1 0.5 1.5zm-9.22 -1.12a2.32 2.32 0 0 0 -2.94 0.26 1.52 1.52 0 0 0 -0.26 1.52 2.12 2.12 0 0 0 2.9 0.68 1.52 1.52 0 0 0 0.3 -2.46zm-2.3 1.74c-0.64 -0.4 -0.32 -1.82 1.26 -1.62a0.88 0.88 0 0 1 0.54 1.5 1.44 1.44 0 0 1 -1.8 0.08zm-11.16 -2.08a2.28 2.28 0 0 0 -2.94 0.26 1.24 1.24 0 0 0 -0.26 1.54 2.14 2.14 0 0 0 2.9 0.66 1.52 1.52 0 0 0 0.3 -2.46zm-0.5 1.64a1.5 1.5 0 0 1 -1.8 0.12c-0.64 -0.4 -0.52 -1.86 1.26 -1.64a0.92 0.92 0 0 1 0.54 1.52zm5.44 8.42a1.52 1.52 0 0 0 0.3 -2.46c-1.34 -1.14 -4 0.14 -3.2 1.8a2.12 2.12 0 0 0 2.9 0.66zm-0.74 -2.32a0.9 0.9 0 0 1 0.54 1.5 1.5 1.5 0 0 1 -1.8 0.12c-0.64 -0.4 -0.44 -1.84 1.26 -1.62zm7.26 -0.38c-1.3 -1.1 -4 0 -3.2 1.78a2.12 2.12 0 0 0 2.9 0.68 1.52 1.52 0 0 0 0.3 -2.46zm-0.5 1.62a1.5 1.5 0 0 1 -1.8 0.14c-0.64 -0.4 -0.26 -1.8 1.26 -1.64a0.9 0.9 0 0 1 0.54 1.5zm10.32 -1.62c-1.36 -1.16 -4 0.14 -3.2 1.78a2.12 2.12 0 0 0 2.9 0.68 1.52 1.52 0 0 0 0.3 -2.46zm-0.5 1.62a1.5 1.5 0 0 1 -1.8 0.14c-0.64 -0.4 -0.32 -1.88 1.26 -1.64a0.9 0.9 0 0 1 0.54 1.5zm22.84 -2.32c-1.34 -1.16 -4 0.12 -3.2 1.78a2.14 2.14 0 0 0 2.92 0.68 1.52 1.52 0 0 0 0.28 -2.46zm-0.5 1.62a1.48 1.48 0 0 1 -1.78 0.14c-0.64 -0.4 -0.22 -1.86 1.24 -1.64a0.9 0.9 0 0 1 0.54 1.56zm-10.48 7.8c-1.38 -1.16 -4 0.14 -3.2 1.8a2.14 2.14 0 0 0 2.9 0.66 1.52 1.52 0 0 0 0.3 -2.46zm-0.5 1.64a1.5 1.5 0 0 1 -1.8 0.12c-0.64 -0.4 -0.24 -1.84 1.26 -1.64a0.92 0.92 0 0 1 0.62 1.52zm-5.72 -1.64c-1.4 -1.18 -4 0.16 -3.2 1.8a2.14 2.14 0 0 0 2.9 0.66 1.52 1.52 0 0 0 0.3 -2.46zm-0.5 1.64a1.5 1.5 0 0 1 -1.8 0.12c-0.64 -0.4 -0.32 -2 1.26 -1.64a0.92 0.92 0 0 1 0.54 1.52zm-9.94 -1.86c-1.42 -1.22 -4 0.16 -3.2 1.78a2.12 2.12 0 0 0 2.9 0.68 1.54 1.54 0 0 0 0.3 -2.46zm-0.52 1.62a1.44 1.44 0 0 1 -1.78 0.12c-0.64 -0.38 -0.3 -1.8 1.26 -1.62a0.9 0.9 0 0 1 0.52 1.5zm-9.68 -1.82c-1.44 -1.22 -4 0.18 -3.18 1.78a2.12 2.12 0 0 0 2.9 0.68 1.52 1.52 0 0 0 0.28 -2.46zm-0.5 1.62a1.48 1.48 0 0 1 -1.8 0.12c-0.64 -0.4 -0.32 -2 1.26 -1.62a0.9 0.9 0 0 1 0.54 1.5z" stroke-width="1"/><path d="m390 222.38 -0.1 -5.48a0.5 0.5 0 0 0 -0.3 -0.54c-20 -6.46 -48.8 -14 -63.18 -17.62 8.16 0.82 14.98 1.48 18.5 1.78 0.24 0 4.62 -2.92 4.62 -2.92V71.18l-3.08 -1.66 -66.62 6.1a17.34 17.34 0 0 0 -0.4 -3.32 0.18 0.18 0 0 0 -0.34 0 9.66 9.66 0 0 0 0 3.4c-43.48 4 -92 8.48 -92 8.6 -0.42 8.26 0 84.12 0.62 100.88 0 0.14 0.28 0.32 0.32 0.34 5 0.54 10 1.06 15 1.52 -11.76 4 -23.64 8.14 -35.12 13 -1.48 -2 -3.04 -4.12 -4.68 -6a56 56 0 0 0 -23.68 -16.68 22.46 22.46 0 0 0 -2.96 -5c-0.86 0 -1.68 0.12 -2.48 0.16a38.56 38.56 0 0 0 -0.5 -4 12 12 0 0 0 7.02 -2 12.28 12.28 0 0 0 4 -5.36c0.36 -0.94 0.68 -2.84 2 -3.2 0.84 -0.24 2.12 -0.54 2.2 -1.62 0 -0.3 -0.3 -0.64 -0.42 -0.88a23.76 23.76 0 0 1 -1.72 -3.68 15.08 15.08 0 0 1 0 -7.72c12.4 -4.28 10 -11.02 10 -11.02s-1.1 2.3 -2.18 2.26c0 0 2.98 -6.96 0.62 -11.04a4.76 4.76 0 0 1 -6 2s2.82 -0.88 2.98 -2a17.86 17.86 0 0 1 -14.74 -2s0.8 -1.16 2.98 -0.38a12 12 0 0 0 -12 -4.14s0.6 -1.32 3.24 -2a16.4 16.4 0 0 0 -15.12 9.28l-9.56 -1.5 5.28 2.68s-9.7 -1.18 -10.54 8.4c0 0 1.82 -2.94 2.94 -2.44a12.28 12.28 0 0 0 1.4 17.5c5 10 7.26 9.16 7.72 19.38a14.78 14.78 0 0 0 -1.66 -0.82 74 74 0 0 0 -5.16 6 21.86 21.86 0 0 0 -11.48 5.38 17.02 17.02 0 0 0 -9.26 2.4c-4.86 3.32 -8.48 10.2 -10.96 15.62a10.44 10.44 0 0 0 -0.34 -3.72 0.24 0.24 0 0 0 -0.48 0v4.72a0.36 0.36 0 0 0 0.26 0.34 86.86 86.86 0 0 0 -5.46 18.22c-4.92 0.16 -31.46 0.58 -33.66 0.78a15.54 15.54 0 0 0 -5.18 0.74c-2.52 1.16 -3.12 5.04 -3.44 7.42 -0.58 4.2 0.44 22.3 0.64 27.08 0.12 3.22 0.38 6 3.32 7.82s6.72 1.74 10 1.86a166.24 166.24 0 0 0 29.42 -1.4 63.48 63.48 0 0 0 23.06 32.7 64.48 64.48 0 0 0 15.2 9.58A109.12 109.12 0 0 0 129.66 310c-0.94 6.54 -0.66 15.74 6.5 17.72 -0.24 2.76 -0.36 5.64 -0.38 8.5a62 62 0 0 0 -19.22 3.56c-4.56 1.5 -10.8 3.16 -12.8 8 -1.56 3.86 -0.14 12 0 12 8.76 8.78 22.32 11 34.2 11.14a68 68 0 0 0 27.34 -4.48c4.2 -1.78 8.64 -5.02 9.62 -9.72a43.54 43.54 0 0 0 0.66 -7.48c0 -5.14 -6 -8.84 -10 -10.5 -6.56 -2.84 -13.8 -3.08 -20.84 -3.16 0 -2.86 -0.14 -5.74 -0.22 -8.58a8.92 8.92 0 0 0 3.8 -3.14c2.64 -3.82 2.56 -8.88 2 -13.28a114.42 114.42 0 0 0 30.58 -8.8c-0.34 3.74 0.52 6.56 4.16 7.58 1.6 6.22 4 12.16 5.44 18.42a124.88 124.88 0 0 0 4.2 16 8.72 8.72 0 0 0 -0.96 6.78c-1.7 5.52 7.06 4.5 10 4 3.36 -0.58 7 0.6 10.18 -0.68a4.36 4.36 0 0 0 2.7 -2.46c0.62 -2 -1.32 -2.94 -1.44 -3.14l-9.6 -5.74c0.28 -11.28 0.52 -21.56 -0.3 -33.88l3.8 -0.62c1.26 2 3.78 1.72 6.42 1.84a43.84 43.84 0 0 0 2.12 8.44c2 7.06 1.86 12.3 6 27.38a9.08 9.08 0 0 0 -0.86 7.26c-0.88 6.58 8.34 2.78 12 3.02 2.84 0.18 6.38 1.62 9.12 0.28a3.24 3.24 0 0 0 1.86 -3.5 3.2 3.2 0 0 0 -1.74 -2.54l-9.42 -5.72c1.2 -15.54 0.82 -22.32 1.72 -35.42 1.8 -0.26 3.58 -0.56 5.34 -0.92a4.46 4.46 0 0 0 2.76 -1.14c1.04 -1.3 0.7 -4 0.64 -5.56 0 -3.26 -0.22 -6.12 -3.36 -7.02a150 150 0 0 0 -6 -32.16c-4.24 -13.34 -42 -16.3 -51.48 -16.84a47.7 47.7 0 0 0 17.18 -5.66l118.68 48.68 -0.76 -11.7 -111.36 -40.48a84.24 84.24 0 0 0 12.48 -8.56s0.78 -0.24 1.74 -0.6l18.9 8 28.96 -16.72v-1.86s-58.52 -17.3 -60.96 -17.28c-0.8 0 -5.24 2.42 -9.32 4.24 -3.7 -1.32 -6.38 1.62 -9.78 1.82s-6.62 0 -10 -0.18a31.2 31.2 0 0 0 -8.42 0.26c-1.14 -1.74 -2.3 -3.48 -3.52 -5.18 12 -4.14 24.8 -9.04 36.8 -13.24 14.56 1.36 29.16 2.48 43.72 3.84a11.24 11.24 0 0 0 0 2.46c-1.88 0.92 -9.64 4.68 -11.4 6v2.26l31.4 6.38 12.94 -8.82s0.26 -2.14 0 -2.24a36.7 36.7 0 0 0 -7.82 -1.12s-0.12 -1.74 -0.26 -2.48c7.58 0.74 28.68 2.88 46.4 4.66 48.6 12.56 62 17.1 69.34 18.94l-68 59.14 1 12 49.4 -47.86a1.88 1.88 0 0 0 0.14 0.76 0.32 0.32 0 0 0 0.5 0 3.76 3.76 0 0 0 0.18 -1.6zM155.04 187.06a11.3 11.3 0 0 1 -4 4.26c-4.22 -5.22 -5.46 -5.18 -15 -13.18 0.92 -0.16 3.02 -0.44 3.08 -0.52a61.02 61.02 0 0 1 15.92 9.44zm18 83.24a83.58 83.58 0 0 1 -6.66 -5.78 28.78 28.78 0 0 0 6.54 -9.3 91.22 91.22 0 0 0 7.28 4.92 68 68 0 0 1 -7.24 10.16zm8.5 -3.58a0.3 0.3 0 0 1 0 0.54 5.56 5.56 0 0 1 -2.28 0.48 20.6 20.6 0 0 1 -2.92 0.28 0.24 0.24 0 0 1 0 -0.46 28 28 0 0 1 2.86 -0.62 5.78 5.78 0 0 1 2.26 -0.22zm-27.28 5.74a32.26 32.26 0 0 0 6.42 8.28 32.68 32.68 0 0 1 -7.84 3.26c-3.62 0 -4.6 -6.8 -5.3 -9.4a39.66 39.66 0 0 0 6.64 -2.14zm-6.76 1.72a248.66 248.66 0 0 1 -5.58 -28.98 47.22 47.22 0 0 0 5.16 0.64c0.92 9.06 2.54 18 6.84 26 -2.16 0.86 -4.32 1.62 -6.5 2.34zm7.48 -2a40 40 0 0 0 10.94 -7.16 44.9 44.9 0 0 0 6.78 5.7 48.18 48.18 0 0 1 -11.36 9.66 39.84 39.84 0 0 1 -6.44 -8.24zm10.84 -8.18c-5.26 -5.66 -5.62 -10.98 -6 -18.62a21.28 21.28 0 0 0 2 -1.04 10.78 10.78 0 0 0 1.76 0.8c0.64 2.92 4.56 6.58 8.4 9.54a32.6 32.6 0 0 1 -6.16 9.32zm-6 -19.2v-2a10 10 0 0 0 1.68 1.3 12.8 12.8 0 0 1 -1.5 0.72zm5.46 19.66a36.32 36.32 0 0 1 -10.82 7.04 63.72 63.72 0 0 1 -6.86 -25.64c1.64 0.14 3.3 0.22 4.9 0.36a16.58 16.58 0 0 0 6.78 -0.64c-0.16 9.52 2.38 14.8 6.08 18.9zm-6 -19.48a27.06 27.06 0 0 1 -11.76 0.3c-0.6 -6.52 -0.82 -13.08 -1.84 -19.58 0 -0.12 -0.2 0 -0.2 0a167.32 167.32 0 0 0 1.34 19.48 34.72 34.72 0 0 0 -5.14 -0.36s-1.86 -14 -2.86 -20.78a21.36 21.36 0 0 0 6.58 0.9c1.62 3.16 3.36 6.24 5.02 9.2 0.16 0.3 2.32 -0.12 3.16 -0.26a28.5 28.5 0 0 0 5.84 8.58c0.06 0.86 0 1.7 -0.02 2.54zM126.26 180.16c3.08 -0.44 6.1 -1.36 9.18 -2a196.62 196.62 0 0 1 15.06 13.38c-10.34 5.42 -16.32 2.18 -18.22 1.02a17.08 17.08 0 0 0 -6.54 -7.36 48.44 48.44 0 0 0 0.52 -5.04zm11.36 15.04c-0.82 10.16 2.94 20 7.58 29.14 -0.92 0 -4.96 -0.66 -6.3 -0.66 -0.88 -6 -1.84 -12 -3.04 -18a60.44 60.44 0 0 0 -3.3 -12.44 10.32 10.32 0 0 0 5.06 1.96zm13.54 38.46a131.7 131.7 0 0 1 -9.16 -18.3 26.74 26.74 0 0 0 21.04 -2c2 4.62 3.72 9.34 5.54 14 -6.92 4.16 -15.04 5.56 -17.42 6.3zm-9.32 -18.56a52.32 52.32 0 0 1 -3.72 -19.84 24.72 24.72 0 0 0 12.78 -3.12 179.44 179.44 0 0 1 11.8 20.54c-6.7 3.72 -13.4 3.96 -20.86 2.42zM106.66 150a22.58 22.58 0 0 1 11.1 -10.36c7.84 -3.24 9.64 -1 9.64 -1a17 17 0 0 0 4.2 3.8 14.14 14.14 0 0 0 0.18 5.72c-0.14 0 -1.14 0.78 -1.74 0.72s-0.6 -0.38 -0.98 -0.94a4.38 4.38 0 0 0 -5.84 -1.7c-3.08 1.3 -3.2 5.22 -1.44 7.76a24.36 24.36 0 0 0 -8.58 7.28A82.46 82.46 0 0 0 106.66 150zm6.62 11.5c2.64 -2.16 2.28 -3.04 8.84 -7.1 0 0 0.16 -0.3 0.12 -0.36 -1.08 -2 -1.78 -5.06 0.12 -6.72a4.24 4.24 0 0 1 6.56 1.38c0.98 1.56 1.38 0.78 3.06 -0.12 0 0 0.18 -0.12 0.18 -0.2a20.7 20.7 0 0 1 -0.16 -5.74 16.76 16.76 0 0 0 14.6 1.36 14.32 14.32 0 0 0 -0.48 6.56 12.32 12.32 0 0 0 0.88 2.76 14.44 14.44 0 0 1 0.9 1.86c0.44 2 -1.18 2.26 -2.84 2.36 -0.26 0 -0.22 0.22 -0.3 0.88a13.42 13.42 0 0 1 -5.6 8.28c-2.3 1.42 -5.82 0.98 -6 1.6a16.56 16.56 0 0 0 0.44 4.16 42.34 42.34 0 0 1 -19.58 -3.22 20.68 20.68 0 0 0 -0.74 -7.78zm-1.02 7.2c6.66 4.98 16.32 4.34 24.18 4.3 0.42 0.68 2 3.34 2.38 4 0 0 -10.8 3 -16.5 2.76A27.1 27.1 0 0 1 107.58 174c1.56 -1.84 3.02 -3.66 4.68 -5.34zm12.86 16.24A42.36 42.36 0 0 0 108 180.26c0.22 -0.96 0.8 -3.8 1.06 -4.4a23.24 23.24 0 0 0 16.46 4.38 16.12 16.12 0 0 0 -0.4 4.66zm-17.5 -10.38c0.36 0.36 0.74 0.7 1.12 1.02a5.62 5.62 0 0 0 -1 4.68c-2.52 -0.24 -8.84 -0.68 -11.52 -0.68a22.16 22.16 0 0 1 11.4 -5.06zm-66.78 87.6c-5.7 -0.2 -12 -0.4 -12.6 -7.48 -0.4 -5.08 -1.38 -25.3 -0.34 -30a10.34 10.34 0 0 1 1.32 -3.82 5.74 5.74 0 0 1 4.34 -1.86c2.5 -0.26 25.88 0 35.48 -1.26 -2.68 14 -3.02 29.52 1.04 43.2a155.4 155.4 0 0 1 -29.24 1.22zm133.64 94.36c-0.86 5.08 -5.46 7.58 -9.86 9.38a58.56 58.56 0 0 1 -14.18 3.46 75.02 75.02 0 0 1 -34.34 -2.68 35.6 35.6 0 0 1 -12 -7.06s-0.62 -4.16 -0.6 -6.1c3.06 6.82 18 9.42 23.34 10 11.06 1.36 23.2 1.58 33.88 -2 4.48 -1.54 11.76 -4.94 14 -9.88 0.18 0.16 -0.24 4.82 -0.24 4.88zm-29.72 -12.3c0.1 -2.54 0.12 -5.12 0.1 -7.68a63.66 63.66 0 0 1 16.4 1.68c4.48 1.22 10.56 3.76 12.9 8 3.46 6.44 -7.86 12.26 -12.54 14 -8.28 3.08 -17.36 3.44 -26 3.1a81.68 81.68 0 0 1 -16.48 -2c-4.84 -1.22 -11.72 -3.08 -14.34 -7.78 -4.26 -7.6 6.9 -11.48 12 -13.16a66.62 66.62 0 0 1 19.04 -3.66c0 2.22 0 4.42 0.24 6.54 0.2 2.56 1.14 6.48 4.24 6.92s4.34 -3.46 4.44 -5.96zm-8 -5.56c0 -3.62 0 -7.28 -0.28 -10.9a14.22 14.22 0 0 0 7.5 -0.44c0 2.82 0.14 10 0.14 10.46 0 2.52 0.34 14.74 -5.16 10.82 -2.72 -1.96 -2.12 -7 -2.14 -9.94zm12.14 -17.76a9.42 9.42 0 0 1 -9.84 6.24c-9.44 -0.18 -9.6 -10 -8.98 -17.1a70.12 70.12 0 0 0 19.62 0.72 28 28 0 0 1 -0.74 10.14zm36.76 -11.34a19.28 19.28 0 0 0 2.98 0.38 70.1 70.1 0 0 0 16.3 -1.12c-0.28 11.24 0 22.54 0 33.78a8.86 8.86 0 0 1 -4.68 3.36 4 4 0 0 1 -5.24 -2.96c-3.02 -9.64 -4.08 -20.32 -9.3 -33.44zm22.28 42a16.74 16.74 0 0 0 8.16 -0.5c-1.02 4.46 -7.8 2.5 -11.16 2.9s-10.52 2.44 -10.7 -2.54c3.06 1.28 7.34 -1.64 13.76 0.06zm28.7 1.52a13 13 0 0 0 8.66 -0.14c1.26 5.1 -9.56 2.34 -12.16 2.56 -3.52 0.3 -9.82 3.14 -9.9 -2.1 3.06 1.1 7.28 -2.22 13.46 -0.4zm-1.46 -26.82c-0.38 6 -0.92 12 -1.24 18a8.46 8.46 0 0 1 -4.86 3.64 3.84 3.84 0 0 1 -4.88 -2.1c-4.8 -17.66 -2.52 -17.28 -8.34 -35.78a100.44 100.44 0 0 0 20.12 -0.76c-0.74 5.58 -0.38 11.28 -0.74 16.92zm6.24 -30.82a3.28 3.28 0 0 1 1.72 1.18 7.34 7.34 0 0 1 1.16 4.52 16.84 16.84 0 0 1 0 2.46c0 0.98 -0.44 2.88 -1.28 3.48a10.26 10.26 0 0 1 -3.36 0.68 97.24 97.24 0 0 1 -25.34 1.34c-2 -0.16 -3.74 -0.2 -4.88 -2.24a6.12 6.12 0 0 1 -0.42 -1.46c-0.3 -1.24 -1.5 -6 -0.18 -7.42 0.58 -0.6 -1.12 -0.34 32.64 -2.62zm-18.48 -4.9a0.36 0.36 0 0 1 0.7 0c0.22 2.5 0.8 3.02 0.4 3.68a0.32 0.32 0 0 1 -0.4 0.1c-0.52 -0.3 -0.52 -0.96 -0.6 -1.5a14.5 14.5 0 0 1 -0.04 -2.36zm-1.6 -10.48a4.54 4.54 0 0 1 0.82 1.68 2.38 2.38 0 0 1 0 1.74 0.32 0.32 0 0 1 -0.5 0 3.12 3.12 0 0 1 -0.56 -1.54 12 12 0 0 1 -0.38 -1.72 0.32 0.32 0 0 1 0.68 -0.22zm-3.6 -9.58a5.24 5.24 0 0 1 1.68 1.76c0.36 0.62 0.88 1.58 0.62 2.28 0 0.24 -0.42 0.38 -0.6 0.16a6.38 6.38 0 0 1 -0.7 -1.84 8.72 8.72 0 0 0 -1.28 -2c-0.1 -0.26 0.1 -0.6 0.34 -0.44zm-8.46 -4.7a6.36 6.36 0 0 1 5.06 1c0.34 0.3 0 0.96 -0.46 0.78a10.88 10.88 0 0 0 -4.52 -1.28c-0.22 -0.08 -0.3 -0.54 -0.02 -0.58zm-10.22 -0.34a23.68 23.68 0 0 1 2.42 -0.2 4.14 4.14 0 0 1 2.16 0.12 0.32 0.32 0 0 1 0 0.54 3.78 3.78 0 0 1 -2.16 0.24 10.8 10.8 0 0 1 -2.42 -0.24c-0.16 -0.14 -0.18 -0.5 0.06 -0.54zm-12 1.08a40.92 40.92 0 0 1 4.92 -0.66c0.58 0 0.6 0.9 0 0.94a44 44 0 0 1 -4.88 0c-0.02 -0.06 -0.08 -0.32 0.1 -0.36zm19.02 14.52 3.4 16c-3.04 0 -1.84 6 -1.5 7.72a16.54 16.54 0 0 0 0.7 2.68 144.34 144.34 0 0 1 -15 2 34.68 34.68 0 0 1 -7.62 -0.4c-3.9 -0.86 -4.42 -3.58 -4.62 -7.04 0 -0.32 -0.78 0.26 4.86 -2.36l21.46 -2 -2.58 -12c-0.66 5.72 -14 11.52 -18.8 13.44 -0.68 -0.16 -14.6 7.46 -31.86 10.44 -14.94 2.48 -23.7 0.48 -36.82 -3.52a61.5 61.5 0 0 1 -17.42 -7.7 93.16 93.16 0 0 1 -14.46 -11.8c-18 -18.58 -20.66 -43.78 -15.8 -69.28 2.16 -11.4 6.24 -23.82 14.38 -32.46 4.9 -5.2 12.58 -4.4 19.12 -4 11.86 0.8 24.28 2.6 28.62 13.7 5.6 14.32 7.54 54 14.46 80 0.74 2.74 1.62 8.82 4.82 10.18 11.46 9.72 54.8 -3.68 54.8 -3.68zM194 242.46a71.16 71.16 0 0 1 -25.3 2.78c-3.46 -0.58 -6.38 -0.9 -8.88 -3.68 -2 -2.38 -3.62 -5.2 -5.58 -7.66a53.4 53.4 0 0 0 21.62 -10.54c9.72 -0.22 16.14 -2 36 -1.38 0 1.2 1.5 2.2 2.82 2.24h0.66l2 5.56c-7.58 5.02 -14.74 9.92 -23.34 12.68zm-17.64 -19.68A17.62 17.62 0 0 0 179 220a33.84 33.84 0 0 0 -1.88 -5.04 24.48 24.48 0 0 0 12 -2.16l18.34 8.2c-7.92 0.02 -23.46 0.34 -31.18 1.78zm41.06 0.24c-1.6 0.52 -6.18 0.72 -4.6 -2a4.64 4.64 0 0 1 5.52 -1.14 1.76 1.76 0 0 1 1.2 0.98c0.3 1.3 -1.38 1.88 -2.2 2.16zm3.06 4 -1.08 -4.14a2.1 2.1 0 0 0 0.82 -2.32c1.62 -0.46 2.54 -2.42 3.74 -3.5a4.34 4.34 0 0 1 5.54 -0.84 2 2 0 0 0 -1.66 0.14c-0.12 0 0 0.28 0 0.28 2.92 0 4 3.08 4.16 3.9a3.2 3.2 0 0 0 -2.66 -1.52c-0.24 0 -0.32 0.4 0 0.44a3 3 0 0 1 2.52 2c-0.78 0.96 -3.4 0.2 -4.52 1s-1.14 1.64 -2.36 2.6a14 14 0 0 1 -4.58 2.06zM208.96 200c1.16 -0.7 47.62 14.14 60 17.48l-27.74 15.32 -16.68 -6.48a6.46 6.46 0 0 0 1.48 -1.02c0.76 -0.7 1.42 -3.22 4.24 -2.78 0 0 2 0.58 2.32 0s0 -2 -0.22 -2.76c-1.34 -4.26 -4.18 -6.42 -7.88 -4 -1.64 1.08 -2.72 3.56 -4.56 4.24a3.66 3.66 0 0 0 -2.4 -1.12c-4.56 -0.4 -5.46 2.14 -5.5 2.14h-1.22l-20 -8.88a39.48 39.48 0 0 1 6.24 -1.1c0.7 0 2 -0.2 2 -1.14a0.28 0.28 0 0 0 -0.16 -0.26c-0.72 -0.42 -3.84 -2.24 1.58 -1.34 0.5 0 1.48 0.16 1.72 -0.48s-0.26 -1.12 -0.26 -1.14c0.22 -0.52 -0.42 -1.18 -0.44 -1.22a2 2 0 0 0 -1.14 -1.54 51.4 51.4 0 0 0 8.62 -3.92zM186 206a22.62 22.62 0 0 0 6.26 -0.26c0.96 -0.28 1.86 -0.76 2.8 -1.12 1.34 -0.54 5.22 -1.46 5.84 0.76a10.52 10.52 0 0 0 -3.04 -0.5v0.12a7.3 7.3 0 0 1 3.56 1.5 7.84 7.84 0 0 0 -3.38 -0.54c-0.36 0 -0.36 0.62 0 0.58 1.32 -0.12 4.3 0.66 2 1.12 -0.72 0.12 -1.5 -0.5 -2.32 -0.3 -1.28 0.32 -1.6 1.4 -1.32 1.52 1.22 0.46 2.32 1.38 1.3 1.46a10.72 10.72 0 0 1 -2.4 0.2c-4.36 0.42 -6.56 2.4 -11.72 3.34 -2.2 0.4 -4.46 0.36 -6.66 0.68 -1.3 -2.76 -4.82 -8.34 -5 -8.62A124.34 124.34 0 0 1 186 206zm-7.52 14.14s-6.26 4.84 -9.64 6.86c-1.76 -4.62 -3.52 -9.34 -5.46 -14a25.04 25.04 0 0 0 7.78 -6.74s5.92 8.08 7.4 13.92zm-7.68 -14.38a28.16 28.16 0 0 1 -7.7 6.6 182.52 182.52 0 0 0 -11.7 -20.52 10.34 10.34 0 0 0 4 -4.44c8.06 5.94 12.82 14.6 15.48 18.4zm102.76 -7.12c0.24 0 0.2 -1.68 0.14 -2.26 2.44 0.54 4.96 0.66 7.42 1.2l-12.86 8 -30.66 -6.14a107.36 107.36 0 0 0 11.14 -5.42 5.82 5.82 0 0 0 0.68 2c1.64 2.42 6.84 2.96 9.08 3.26a36.76 36.76 0 0 0 15.14 -0.6zm-0.42 -0.62a37.36 37.36 0 0 1 -12.56 0.78c-3.8 -0.32 -8.56 -0.86 -11.06 -4a23.3 23.3 0 0 1 -0.3 -3.66l23.74 2.26a33.02 33.02 0 0 0 0.26 4.6zm-84.84 -13.04c0.18 -16.7 -0.24 -92 -0.84 -100.38 5.06 0 147.26 -13.08 158.96 -14.52l-1.5 129.68c-40.62 -4.78 -145.12 -14.12 -156.62 -14.78z" stroke-width="1"/><path d="M110.18 152.26a0.18 0.18 0 0 0 0 0.36 0.18 0.18 0 0 0 0 -0.36zm3.28 1.74a0.26 0.26 0 0 0 0 0.5c0.32 -0.04 0.32 -0.5 0 -0.5zm1.76 -4a0.28 0.28 0 0 0 0 0.56 0.28 0.28 0 0 0 0 -0.56zm-3.78 -2.92a0.32 0.32 0 0 0 0 0.64 0.32 0.32 0 0 0 0 -0.64zm4.56 -0.84a0.36 0.36 0 0 0 0 -0.7 0.36 0.36 0 0 0 0 0.7zm1.24 2.18a0.26 0.26 0 0 0 0 -0.52 0.26 0.26 0 0 0 0 0.52zm2.64 -5.66c-0.12 -0.56 -0.64 -0.58 -0.76 0s0.88 0.64 0.76 0zm4.92 -1.92a0.24 0.24 0 0 0 0 -0.48 0.24 0.24 0 1 0 0 0.48zm1 3a0.22 0.22 0 0 0 0 -0.44 0.22 0.22 0 0 0 0 0.44zm3.28 0.98a0.2 0.2 0 0 0 0 -0.38 0.2 0.2 0 1 0 0 0.38zM122 144a0.28 0.28 0 1 0 0 -0.56 0.28 0.28 0 0 0 0 0.56zm-7.78 -0.9a0.28 0.28 0 0 0 0 0.56 0.28 0.28 0 0 0 0 -0.56zm-1.26 2.04a0.26 0.26 0 1 0 0 0.5 0.26 0.26 0 0 0 0 -0.5zm-4.54 3.2c-0.42 0 -0.42 0.66 0 0.64a0.58 0.58 0 0 0 0.44 -0.14 0.28 0.28 0 0 0 0 -0.38 0.66 0.66 0 0 0 -0.44 -0.12zm9.32 5.92a0.32 0.32 0 0 0 0 -0.62 0.32 0.32 0 0 0 0 0.62zm0.4 -4.26 0.2 0.12a0.32 0.32 0 1 0 0 -0.56 0.62 0.62 0 0 1 -0.2 0.1c-0.14 0.14 -0.14 0.34 0 0.34zm-5.44 7.46a0.26 0.26 0 0 0 0 0.52 0.26 0.26 0 0 0 0 -0.52zm8.82 -17.04a0.34 0.34 0 0 0 0.28 -0.42l-0.16 -0.2a0.18 0.18 0 0 0 -0.26 0l-0.16 0.2a0.34 0.34 0 0 0 0.3 0.42zm6.48 1.4a0.22 0.22 0 0 0 0 -0.44c-0.2 0 -0.22 0.44 0 0.44zm14.58 7.06a3.44 3.44 0 0 0 0 1.68 0.12 0.12 0 0 0 0.22 0c0.6 -2.16 -0.14 -1.94 -0.22 -1.68zm-1.34 -1.12a2 2 0 0 1 0.98 -0.88 3.22 3.22 0 0 1 1.38 0 0.14 0.14 0 0 0 0 -0.24c-0.94 -0.86 -2.36 0 -2.6 1.12 0.08 0.02 0.2 0.08 0.24 0zm-1.6 15.46c0.16 0 0.2 -0.32 0 -0.32a4.96 4.96 0 0 1 -3.42 -2s-0.12 0 0 0c0.38 0.68 0.88 2.58 3.42 2.32zM165.36 254a1.02 1.02 0 1 0 -1.02 -1 1 1 0 0 0 1.02 1z" stroke-width="1"/></g></svg>